ffmpeg version git-2019-10-28-68f623d Copyright (c) 2000-2019 the FFmpeg developers
  built with gcc 9.2.1 (GCC) 20191010
  configuration: --enable-gpl --enable-version3 --enable-sdl2 --enable-fontconfig --enable-gnutls --enable-iconv --enable-libass --enable-libdav1d --enable-libbluray --enable-libfreetype --enable-libmp3lame --enable-libopencore-amrnb --enable-libopencore-amrwb --enable-libopenjpeg --enable-libopus --enable-libshine --enable-libsnappy --enable-libsoxr --enable-libtheora --enable-libtwolame --enable-libvpx --enable-libwavpack --enable-libwebp --enable-libx264 --enable-libx265 --enable-libxml2 --enable-libzimg --enable-lzma --enable-zlib --enable-gmp --enable-libvidstab --enable-libvorbis --enable-libvo-amrwbenc --enable-libmysofa --enable-libspeex --enable-libxvid --enable-libaom --enable-libmfx --enable-ffnvcodec --enable-cuvid --enable-d3d11va --enable-nvenc --enable-nvdec --enable-dxva2 --enable-avisynth --enable-libopenmpt --enable-amf
  libavutil      56. 35.101 / 56. 35.101
  libavcodec     58. 60.100 / 58. 60.100
  libavformat    58. 33.100 / 58. 33.100
  libavdevice    58.  9.100 / 58.  9.100
  libavfilter     7. 65.100 /  7. 65.100
  libswscale      5.  6.100 /  5.  6.100
  libswresample   3.  6.100 /  3.  6.100
  libpostproc    55.  6.100 / 55.  6.100
Splitting the commandline.
Reading option '-v' ... matched as option 'v' (set logging level) with argument 'debug'.
Reading option '-nostdin' ... matched as option 'stdin' (enable or disable interaction on standard input) with argument 0.
Reading option '-progress' ... matched as option 'progress' (write program-readable progress information) with argument 'C:/Users/teeja/AppData/Local/Temp/KritaFFmpegProgress.nHJxBr'.
Reading option '-r' ... matched as option 'r' (set frame rate (Hz value, fraction or abbreviation)) with argument '18'.
Reading option '-start_number' ... matched as AVOption 'start_number' with argument '0'.
Reading option '-i' ... matched as input url with argument 'D:/Pictures/[MyStuff]/[Art]/[Krita Files]/CAR-NAGE School Project/[exports]/explosion/explosion%04d.png'.
Reading option '-i' ... matched as input url with argument 'D:/Pictures/[MyStuff]/[Art]/[Krita Files]/CAR-NAGE School Project/[exports]/explosion/palette.png'.
Reading option '-lavfi' ... matched as option 'lavfi' (create a complex filtergraph) with argument '[0:v][1:v] paletteuse'.
Reading option '-y' ... matched as option 'y' (overwrite output files) with argument '1'.
Reading option 'D:/Pictures/[MyStuff]/[Art]/[Krita Files]/CAR-NAGE School Project/[exports]/explosion\explosiongiff.gif' ... matched as output url.
Reading option '-vf' ... matched as option 'vf' (set video filters) with argument 'scale=w=570:h=600:force_original_aspect_ratio=decrease'.
Trailing option(s) found in the command: may be ignored.
Finished splitting the commandline.
Parsing a group of options: global .
Applying option v (set logging level) with argument debug.
Applying option nostdin (enable or disable interaction on standard input) with argument 0.
Applying option progress (write program-readable progress information) with argument C:/Users/teeja/AppData/Local/Temp/KritaFFmpegProgress.nHJxBr.
[file @ 0000017b2793b100] Setting default whitelist 'file,crypto'
Applying option lavfi (create a complex filtergraph) with argument [0:v][1:v] paletteuse.
Applying option y (overwrite output files) with argument 1.
Successfully parsed a group of options.
Parsing a group of options: input url D:/Pictures/[MyStuff]/[Art]/[Krita Files]/CAR-NAGE School Project/[exports]/explosion/explosion%04d.png.
Applying option r (set frame rate (Hz value, fraction or abbreviation)) with argument 18.
Successfully parsed a group of options.
Opening an input file: D:/Pictures/[MyStuff]/[Art]/[Krita Files]/CAR-NAGE School Project/[exports]/explosion/explosion%04d.png.
[image2 @ 0000017b2797bdc0] Opening 'D:/Pictures/[MyStuff]/[Art]/[Krita Files]/CAR-NAGE School Project/[exports]/explosion/explosion0000.png' for reading
[file @ 0000017b2797f540] Setting default whitelist 'file,crypto'
[AVIOContext @ 0000017b27987740] Statistics: 34839 bytes read, 0 seeks
[image2 @ 0000017b2797bdc0] Opening 'D:/Pictures/[MyStuff]/[Art]/[Krita Files]/CAR-NAGE School Project/[exports]/explosion/explosion0001.png' for reading
[file @ 0000017b27990280] Setting default whitelist 'file,crypto'
[AVIOContext @ 0000017b27999d40] Statistics: 114648 bytes read, 0 seeks
[image2 @ 0000017b2797bdc0] Opening 'D:/Pictures/[MyStuff]/[Art]/[Krita Files]/CAR-NAGE School Project/[exports]/explosion/explosion0002.png' for reading
[file @ 0000017b2797f540] Setting default whitelist 'file,crypto'
[AVIOContext @ 0000017b27999d40] Statistics: 298967 bytes read, 0 seeks
[image2 @ 0000017b2797bdc0] Opening 'D:/Pictures/[MyStuff]/[Art]/[Krita Files]/CAR-NAGE School Project/[exports]/explosion/explosion0003.png' for reading
[file @ 0000017b2797f700] Setting default whitelist 'file,crypto'
[AVIOContext @ 0000017b27999d40] Statistics: 420608 bytes read, 0 seeks
[image2 @ 0000017b2797bdc0] Opening 'D:/Pictures/[MyStuff]/[Art]/[Krita Files]/CAR-NAGE School Project/[exports]/explosion/explosion0004.png' for reading
[file @ 0000017b27fb6d80] Setting default whitelist 'file,crypto'
[AVIOContext @ 0000017b27999d40] Statistics: 488056 bytes read, 0 seeks
[image2 @ 0000017b2797bdc0] Opening 'D:/Pictures/[MyStuff]/[Art]/[Krita Files]/CAR-NAGE School Project/[exports]/explosion/explosion0005.png' for reading
[file @ 0000017b2797f7c0] Setting default whitelist 'file,crypto'
[AVIOContext @ 0000017b27999d40] Statistics: 488056 bytes read, 0 seeks
[image2 @ 0000017b2797bdc0] Opening 'D:/Pictures/[MyStuff]/[Art]/[Krita Files]/CAR-NAGE School Project/[exports]/explosion/explosion0006.png' for reading
[file @ 0000017b2797f980] Setting default whitelist 'file,crypto'
[AVIOContext @ 0000017b27999d40] Statistics: 541314 bytes read, 0 seeks
[image2 @ 0000017b2797bdc0] Opening 'D:/Pictures/[MyStuff]/[Art]/[Krita Files]/CAR-NAGE School Project/[exports]/explosion/explosion0007.png' for reading
[file @ 0000017b2797fb00] Setting default whitelist 'file,crypto'
[AVIOContext @ 0000017b27999d40] Statistics: 541314 bytes read, 0 seeks
[image2 @ 0000017b2797bdc0] Opening 'D:/Pictures/[MyStuff]/[Art]/[Krita Files]/CAR-NAGE School Project/[exports]/explosion/explosion0008.png' for reading
[file @ 0000017b279804c0] Setting default whitelist 'file,crypto'
[AVIOContext @ 0000017b27999d40] Statistics: 542268 bytes read, 0 seeks
[image2 @ 0000017b2797bdc0] Opening 'D:/Pictures/[MyStuff]/[Art]/[Krita Files]/CAR-NAGE School Project/[exports]/explosion/explosion0009.png' for reading
[file @ 0000017b27980680] Setting default whitelist 'file,crypto'
[AVIOContext @ 0000017b27999d40] Statistics: 542268 bytes read, 0 seeks
[image2 @ 0000017b2797bdc0] Opening 'D:/Pictures/[MyStuff]/[Art]/[Krita Files]/CAR-NAGE School Project/[exports]/explosion/explosion0010.png' for reading
[file @ 0000017b27980800] Setting default whitelist 'file,crypto'
[AVIOContext @ 0000017b27999d40] Statistics: 560429 bytes read, 0 seeks
[image2 @ 0000017b2797bdc0] Opening 'D:/Pictures/[MyStuff]/[Art]/[Krita Files]/CAR-NAGE School Project/[exports]/explosion/explosion0011.png' for reading
[file @ 0000017b279808c0] Setting default whitelist 'file,crypto'
[AVIOContext @ 0000017b27999d40] Statistics: 560429 bytes read, 0 seeks
[image2 @ 0000017b2797bdc0] Probe buffer size limit of 5000000 bytes reached
Input #0, image2, from 'D:/Pictures/[MyStuff]/[Art]/[Krita Files]/CAR-NAGE School Project/[exports]/explosion/explosion%04d.png':
  Duration: 00:00:01.08, start: 0.000000, bitrate: N/A
    Stream #0:0, 12, 1/25: Video: png, 1 reference frame, rgba(pc), 564x594 [SAR 11811:11811 DAR 94:99], 0/1, 25 fps, 25 tbr, 25 tbn, 25 tbc
Successfully opened the file.
Parsing a group of options: input url D:/Pictures/[MyStuff]/[Art]/[Krita Files]/CAR-NAGE School Project/[exports]/explosion/palette.png.
Successfully parsed a group of options.
Opening an input file: D:/Pictures/[MyStuff]/[Art]/[Krita Files]/CAR-NAGE School Project/[exports]/explosion/palette.png.
[NULL @ 0000017b2797e040] Opening 'D:/Pictures/[MyStuff]/[Art]/[Krita Files]/CAR-NAGE School Project/[exports]/explosion/palette.png' for reading
[file @ 0000017b27987540] Setting default whitelist 'file,crypto'
[png_pipe @ 0000017b2797e040] Format png_pipe probed with size=2048 and score=99
[png_pipe @ 0000017b2797e040] Before avformat_find_stream_info() pos: 0 bytes read:1002 seeks:0 nb_streams:1
[png_pipe @ 0000017b2797e040] After avformat_find_stream_info() pos: 1002 bytes read:1002 seeks:0 frames:1
Input #1, png_pipe, from 'D:/Pictures/[MyStuff]/[Art]/[Krita Files]/CAR-NAGE School Project/[exports]/explosion/palette.png':
  Duration: N/A, bitrate: N/A
    Stream #1:0, 1, 1/25: Video: png, 1 reference frame, rgba(pc), 16x16 [SAR 1:1 DAR 1:1], 0/1, 25 tbr, 25 tbn, 25 tbc
Successfully opened the file.
Parsing a group of options: output url D:/Pictures/[MyStuff]/[Art]/[Krita Files]/CAR-NAGE School Project/[exports]/explosion\explosiongiff.gif.
Successfully parsed a group of options.
Opening an output file: D:/Pictures/[MyStuff]/[Art]/[Krita Files]/CAR-NAGE School Project/[exports]/explosion\explosiongiff.gif.
[file @ 0000017b2812b040] Setting default whitelist 'file,crypto'
Successfully opened the file.
detected 12 logical cores
Stream mapping:
  Stream #0:0 (png) -> paletteuse:default
  Stream #1:0 (png) -> paletteuse:palette
  paletteuse -> Stream #0:0 (gif)
cur_dts is invalid st:0 (0) [init:0 i_done:0 finish:0] (this is harmless if it occurs once at the start per stream)
    Last message repeated 2025 times
[image2 @ 0000017b2797bdc0] Thread message queue blocking; consider raising the thread_queue_size option (current value: 8)
cur_dts is invalid st:0 (0) [init:0 i_done:0 finish:0] (this is harmless if it occurs once at the start per stream)
    Last message repeated 1 times
[image2 @ 0000017b2797bdc0] Opening 'D:/Pictures/[MyStuff]/[Art]/[Krita Files]/CAR-NAGE School Project/[exports]/explosion/explosion0012.png' for reading
[file @ 0000017b27980680] Setting default whitelist 'file,crypto'
[AVIOContext @ 0000017b27fb6cc0] Statistics: 439204 bytes read, 0 seeks
cur_dts is invalid st:0 (0) [init:0 i_done:0 finish:0] (this is harmless if it occurs once at the start per stream)
[image2 @ 0000017b2797bdc0] Opening 'D:/Pictures/[MyStuff]/[Art]/[Krita Files]/CAR-NAGE School Project/[exports]/explosion/explosion0013.png' for reading
[file @ 0000017b27980680] Setting default whitelist 'file,crypto'
[AVIOContext @ 0000017b27fb6cc0] Statistics: 439204 bytes read, 0 seeks
cur_dts is invalid st:0 (0) [init:0 i_done:0 finish:0] (this is harmless if it occurs once at the start per stream)
[image2 @ 0000017b2797bdc0] Opening 'D:/Pictures/[MyStuff]/[Art]/[Krita Files]/CAR-NAGE School Project/[exports]/explosion/explosion0014.png' for reading
[file @ 0000017b27980680] Setting default whitelist 'file,crypto'
[AVIOContext @ 0000017b27fb6cc0] Statistics: 399102 bytes read, 0 seeks
cur_dts is invalid st:0 (0) [init:0 i_done:0 finish:0] (this is harmless if it occurs once at the start per stream)
[image2 @ 0000017b2797bdc0] Opening 'D:/Pictures/[MyStuff]/[Art]/[Krita Files]/CAR-NAGE School Project/[exports]/explosion/explosion0015.png' for reading
[file @ 0000017b27980680] Setting default whitelist 'file,crypto'
[AVIOContext @ 0000017b2797f500] Statistics: 399102 bytes read, 0 seeks
cur_dts is invalid st:0 (0) [init:0 i_done:0 finish:0] (this is harmless if it occurs once at the start per stream)
[image2 @ 0000017b2797bdc0] Opening 'D:/Pictures/[MyStuff]/[Art]/[Krita Files]/CAR-NAGE School Project/[exports]/explosion/explosion0016.png' for reading
[file @ 0000017b27980680] Setting default whitelist 'file,crypto'
[AVIOContext @ 0000017b2797f500] Statistics: 360563 bytes read, 0 seeks
cur_dts is invalid st:0 (0) [init:0 i_done:0 finish:0] (this is harmless if it occurs once at the start per stream)
[image2 @ 0000017b2797bdc0] Opening 'D:/Pictures/[MyStuff]/[Art]/[Krita Files]/CAR-NAGE School Project/[exports]/explosion/explosion0017.png' for reading
[file @ 0000017b27980680] Setting default whitelist 'file,crypto'
[AVIOContext @ 0000017b2797f500] Statistics: 360563 bytes read, 0 seeks
cur_dts is invalid st:0 (0) [init:0 i_done:0 finish:0] (this is harmless if it occurs once at the start per stream)
[image2 @ 0000017b2797bdc0] Opening 'D:/Pictures/[MyStuff]/[Art]/[Krita Files]/CAR-NAGE School Project/[exports]/explosion/explosion0018.png' for reading
[file @ 0000017b27980680] Setting default whitelist 'file,crypto'
[AVIOContext @ 0000017b2797f500] Statistics: 301700 bytes read, 0 seeks
cur_dts is invalid st:0 (0) [init:0 i_done:0 finish:0] (this is harmless if it occurs once at the start per stream)
[image2 @ 0000017b2797bdc0] Opening 'D:/Pictures/[MyStuff]/[Art]/[Krita Files]/CAR-NAGE School Project/[exports]/explosion/explosion0019.png' for reading
[file @ 0000017b27980680] Setting default whitelist 'file,crypto'
[AVIOContext @ 0000017b2797f500] Statistics: 301700 bytes read, 0 seeks
cur_dts is invalid st:0 (0) [init:0 i_done:0 finish:0] (this is harmless if it occurs once at the start per stream)
[image2 @ 0000017b2797bdc0] Opening 'D:/Pictures/[MyStuff]/[Art]/[Krita Files]/CAR-NAGE School Project/[exports]/explosion/explosion0020.png' for reading
[file @ 0000017b27980680] Setting default whitelist 'file,crypto'
[AVIOContext @ 0000017b2797f500] Statistics: 232916 bytes read, 0 seeks
cur_dts is invalid st:0 (0) [init:0 i_done:0 finish:0] (this is harmless if it occurs once at the start per stream)
[image2 @ 0000017b2797bdc0] Opening 'D:/Pictures/[MyStuff]/[Art]/[Krita Files]/CAR-NAGE School Project/[exports]/explosion/explosion0021.png' for reading
[file @ 0000017b27980680] Setting default whitelist 'file,crypto'
[AVIOContext @ 0000017b28c9ab40] Statistics: 232916 bytes read, 0 seeks
cur_dts is invalid st:0 (0) [init:0 i_done:0 finish:0] (this is harmless if it occurs once at the start per stream)
    Last message repeated 1 times
[graph 0 input from stream 0:0 @ 0000017b28c9ab40] Setting 'video_size' to value '564x594'
[graph 0 input from stream 0:0 @ 0000017b28c9ab40] Setting 'pix_fmt' to value '26'
[graph 0 input from stream 0:0 @ 0000017b28c9ab40] Setting 'time_base' to value '1/18'
[graph 0 input from stream 0:0 @ 0000017b28c9ab40] Setting 'pixel_aspect' to value '11811/11811'
[graph 0 input from stream 0:0 @ 0000017b28c9ab40] Setting 'sws_param' to value 'flags=2'
[graph 0 input from stream 0:0 @ 0000017b28c9ab40] Setting 'frame_rate' to value '18/1'
[graph 0 input from stream 0:0 @ 0000017b28c9ab40] w:564 h:594 pixfmt:rgba tb:1/18 fr:18/1 sar:11811/11811 sws_param:flags=2
[graph 0 input from stream 1:0 @ 0000017b28147e80] Setting 'video_size' to value '16x16'
[graph 0 input from stream 1:0 @ 0000017b28147e80] Setting 'pix_fmt' to value '26'
[graph 0 input from stream 1:0 @ 0000017b28147e80] Setting 'time_base' to value '1/25'
[graph 0 input from stream 1:0 @ 0000017b28147e80] Setting 'pixel_aspect' to value '1/1'
[graph 0 input from stream 1:0 @ 0000017b28147e80] Setting 'sws_param' to value 'flags=2'
[graph 0 input from stream 1:0 @ 0000017b28147e80] Setting 'frame_rate' to value '25/1'
[graph 0 input from stream 1:0 @ 0000017b28147e80] w:16 h:16 pixfmt:rgba tb:1/25 fr:25/1 sar:1/1 sws_param:flags=2
[format @ 0000017b2854ed40] Setting 'pix_fmts' to value 'rgb8|bgr8|rgb4_byte|bgr4_byte|gray|pal8'
[auto_scaler_0 @ 0000017b279828c0] w:iw h:ih flags:'bilinear' interl:0
[Parsed_paletteuse_0 @ 0000017b2797fb00] auto-inserting filter 'auto_scaler_0' between the filter 'graph 0 input from stream 0:0' and the filter 'Parsed_paletteuse_0'
[auto_scaler_1 @ 0000017b28439200] w:iw h:ih flags:'bilinear' interl:0
[Parsed_paletteuse_0 @ 0000017b2797fb00] auto-inserting filter 'auto_scaler_1' between the filter 'graph 0 input from stream 1:0' and the filter 'Parsed_paletteuse_0'
[AVFilterGraph @ 0000017b27986540] query_formats: 5 queried, 2 merged, 2 already done, 0 delayed
[swscaler @ 0000017b28f88640] Forcing full internal H chroma due to input having non subsampled chroma
[auto_scaler_0 @ 0000017b279828c0] w:564 h:594 fmt:rgba sar:11811/11811 -> w:564 h:594 fmt:bgra sar:1/1 flags:0x2
[swscaler @ 0000017b28fa3c00] Forcing full internal H chroma due to input having non subsampled chroma
[auto_scaler_1 @ 0000017b28439200] w:16 h:16 fmt:rgba sar:1/1 -> w:16 h:16 fmt:bgra sar:1/1 flags:0x2
[Parsed_paletteuse_0 @ 0000017b2797fb00] [framesync @ 0000017b28f04c08] Selected 1/450 time base
[Parsed_paletteuse_0 @ 0000017b2797fb00] [framesync @ 0000017b28f04c08] Sync level 2
Output #0, gif, to 'D:/Pictures/[MyStuff]/[Art]/[Krita Files]/CAR-NAGE School Project/[exports]/explosion\explosiongiff.gif':
  Metadata:
    encoder         : Lavf58.33.100
    Stream #0:0, 0, 1/100: Video: gif, 1 reference frame, pal8, 564x594 [SAR 1:1 DAR 94:99], 0/1, q=2-31, 200 kb/s, 18 fps, 100 tbn, 18 tbc (default)
    Metadata:
      encoder         : Lavc58.60.100 gif
Clipping frame in rate conversion by 0.000008
[image2 @ 0000017b2797bdc0] Opening 'D:/Pictures/[MyStuff]/[Art]/[Krita Files]/CAR-NAGE School Project/[exports]/explosion/explosion0022.png' for reading
[file @ 0000017b28fa2240] Setting default whitelist 'file,crypto'
[AVIOContext @ 0000017b2814c280] Statistics: 171526 bytes read, 0 seeks
[gif @ 0000017b2812a340] 233x328 image at pos (177;265) [area:564x594]
[image2 @ 0000017b2797bdc0] Opening 'D:/Pictures/[MyStuff]/[Art]/[Krita Files]/CAR-NAGE School Project/[exports]/explosion/explosion0023.png' for reading
[file @ 0000017b27990380] Setting default whitelist 'file,crypto'
[AVIOContext @ 0000017b29201580] Statistics: 171526 bytes read, 0 seeks
[gif @ 0000017b2812a340] 336x458 image at pos (114;136) [area:564x594]
[image2 @ 0000017b2797bdc0] Opening 'D:/Pictures/[MyStuff]/[Art]/[Krita Files]/CAR-NAGE School Project/[exports]/explosion/explosion0024.png' for reading
[file @ 0000017b28e88380] Setting default whitelist 'file,crypto'
[AVIOContext @ 0000017b29325840] Statistics: 5948 bytes read, 0 seeks
[gif @ 0000017b2812a340] 347x486 image at pos (119;108) [area:564x594]
[image2 @ 0000017b2797bdc0] Opening 'D:/Pictures/[MyStuff]/[Art]/[Krita Files]/CAR-NAGE School Project/[exports]/explosion/explosion0025.png' for reading
[file @ 0000017b28e88380] Setting default whitelist 'file,crypto'
[AVIOContext @ 0000017b2924fa00] Statistics: 5948 bytes read, 0 seeks
[gif @ 0000017b2812a340] 359x499 image at pos (107;95) [area:564x594]
[image2 @ 0000017b2797bdc0] Opening 'D:/Pictures/[MyStuff]/[Art]/[Krita Files]/CAR-NAGE School Project/[exports]/explosion/explosion0026.png' for reading
[file @ 0000017b28e87f00] Setting default whitelist 'file,crypto'
[AVIOContext @ 0000017b29311e40] Statistics: 5948 bytes read, 0 seeks
[gif @ 0000017b2812a340] 359x499 image at pos (107;95) [area:564x594]
[gif @ 0000017b2812a340] 382x515 image at pos (97;77) [area:564x594]
    Last message repeated 1 times
[gif @ 0000017b2812a340] 394x524 image at pos (82;70) [area:564x594]
    Last message repeated 1 times
[gif @ 0000017b2812a340] 430x526 image at pos (69;52) [area:564x594]
    Last message repeated 1 times
[gif @ 0000017b2812a340] 412x510 image at pos (69;44) [area:564x594]
    Last message repeated 1 times
[gif @ 0000017b2812a340] 420x442 image at pos (68;38) [area:564x594]
    Last message repeated 1 times
[gif @ 0000017b2812a340] 393x336 image at pos (84;37) [area:564x594]
    Last message repeated 1 times
[gif @ 0000017b2812a340] 320x275 image at pos (121;35) [area:564x594]
    Last message repeated 1 times
[gif @ 0000017b2812a340] 185x161 image at pos (197;35) [area:564x594]
    Last message repeated 1 times
[gif @ 0000017b2812a340] 110x64 image at pos (225;54) [area:564x594]
    Last message repeated 1 times
[gif @ 0000017b2812a340] 1x1 image at pos (563;593) [area:564x594]
    Last message repeated 2 times
[Parsed_paletteuse_0 @ 0000017b2797fb00] [framesync @ 0000017b28f04c08] Sync level 0
[out_0_0 @ 0000017b279901c0] EOF on sink link out_0_0:default.
No more output streams to write to, finishing.
frame=   27 fps=0.0 q=-0.0 Lsize=    1519kB time=00:00:01.45 bitrate=8581.3kbits/s speed=2.95x    
[AVIOContext @ 0000017b2797bc00] Statistics: 0 seeks, 1 writeouts
video:1519kB audio:0kB subtitle:0kB other streams:0kB global headers:0kB muxing overhead: 0.001286%
Input file #0 (D:/Pictures/[MyStuff]/[Art]/[Krita Files]/CAR-NAGE School Project/[exports]/explosion/explosion%04d.png):
  Input stream #0:0 (video): 27 packets read (8961062 bytes); 27 frames decoded; 
  Total: 27 packets (8961062 bytes) demuxed
Input file #1 (D:/Pictures/[MyStuff]/[Art]/[Krita Files]/CAR-NAGE School Project/[exports]/explosion/palette.png):
  Input stream #1:0 (video): 1 packets read (1002 bytes); 1 frames decoded; 
  Total: 1 packets (1002 bytes) demuxed
Output file #0 (D:/Pictures/[MyStuff]/[Art]/[Krita Files]/CAR-NAGE School Project/[exports]/explosion\explosiongiff.gif):
  Output stream #0:0 (video): 27 frames encoded; 27 packets muxed (1555349 bytes); 
  Total: 27 packets (1555349 bytes) muxed
28 frames successfully decoded, 0 decoding errors
[AVIOContext @ 0000017b2812b140] Statistics: 0 seeks, 6 writeouts
[AVIOContext @ 0000017b27987680] Statistics: 1002 bytes read, 0 seeks
